<?xml version="1.0" encoding="utf-8"?>
<svg width="720" height="720" viewBox="0 0 720 720" fill="none" xmlns="http://www.w3.org/2000/svg">
  <defs>
    <clipPath id="clip_path_1">
      <rect width="720" height="720" />
    </clipPath>
    <mask id="mask_2" x="546" y="263" width="911" height="876">
      <path d="M0 0L911 0L911 876L0 876L0 0L0 0ZM196.678 554.865L197.24 531.589L182.959 531.188C174.556 530.951 167.796 530.297 166.534 529.597C162.709 527.476 162.179 523.385 162.173 495.966C162.17 480.839 161.726 468.277 161.118 466.088C159.935 461.827 155.382 456.19 151.066 453.64C149.478 452.702 148.178 451.646 148.178 451.295C148.178 450.943 150.247 449.352 152.776 447.76C155.456 446.073 158.48 442.988 160.026 440.365L162.678 435.865L163.678 373.184L166.039 371.275C168.117 369.594 170.117 369.365 182.732 369.365L197.064 369.365L197.371 356.763C197.54 349.832 197.404 343.72 197.069 343.182C196.006 341.473 159.48 342.144 153.904 343.975C147.183 346.181 140.104 353.34 137.162 360.903C134.979 366.515 134.809 368.626 134.261 396.865C133.722 424.643 133.528 427.122 131.643 430.33C128.846 435.091 124.769 437.199 116.613 438.099L109.678 438.865L109.678 462.865L117.822 463.471C126.798 464.139 131.369 466.408 133.456 471.233C134.18 472.908 134.791 484.957 135.136 504.365C135.651 533.322 135.791 535.094 137.911 539.395C140.922 545.503 146.777 551.013 152.75 553.358C157.106 555.069 159.942 555.268 177.178 555.079L196.678 554.865L196.678 554.865Z" />
    </mask>
    <linearGradient id="gradient_3" gradientUnits="userSpaceOnUse" x1="37.15" y1="286.525" x2="392.15" y2="286.525">
      <stop offset="0" stop-color="#FCA13D" />
      <stop offset="0.432" stop-color="#E89153" />
      <stop offset="0.607" stop-color="#8C48BF" />
      <stop offset="1" stop-color="#7E3DD0" />
    </linearGradient>
    <linearGradient id="gradient_4" gradientUnits="userSpaceOnUse" x1="355.9" y1="262.233" x2="98.695" y2="192.645">
      <stop offset="0" stop-color="#BE43DE" />
      <stop offset="0.435" stop-color="#E95E91" />
      <stop offset="1" stop-color="#FCA03C" />
    </linearGradient>
  </defs>
  <g clip-path="url(#clip_path_1)">
    <g transform="translate(66 4)" mask="url(#mask_2)">
      <path d="M456.487 575.011C478.546 572.45 493.73 565.002 498.587 554.362C500.675 549.786 501.045 540.651 499.431 533.496C498.061 527.423 491.594 513.034 486.238 504.141C469.502 476.354 418.219 408.695 373.678 355.637C372.393 354.106 364.428 344.503 355.978 334.297C330.718 303.787 329.446 301.537 329.486 287.441C329.507 280.208 329.952 277.295 331.968 271.204C339.621 248.074 356.473 221.92 383.793 190.771C389.473 184.296 407.573 165.153 424.016 148.231C462.193 108.941 477.827 90.6201 490.891 69.8636C500.836 54.0618 504.533 42.5067 503.604 30.1268C502.514 15.6049 493.205 5.80367 476.935 2.04674C468.333 0.0605316 448.239 -0.642105 437.424 0.665237C401.489 5.00931 368.378 22.4818 342.843 50.5744C330.123 64.5687 324.973 72.6022 297.467 121.358C262.315 183.67 240.214 215.567 219.877 233.343C212.276 239.986 205.687 243.1 198.118 243.625C185.344 244.51 176.673 236.908 174.11 222.576C173.546 219.422 173.22 185.342 173.22 129.511C173.22 129.511 173.22 41.422 173.22 41.422C173.22 41.422 170.663 38.7098 170.663 38.7098C168.446 36.3589 167.454 35.9977 163.214 35.9977C158.864 35.9977 157.96 36.3494 155.054 39.1738C155.054 39.1738 151.786 42.3498 151.786 42.3498C151.786 42.3498 151.727 53.3232 151.727 53.3232C151.692 59.6918 151.246 65.122 150.663 66.2634C148.632 70.2434 144.18 71.4737 133.094 71.1178C117.705 70.6237 117.526 70.4618 112.447 52.4232C110.607 45.8875 109.469 43.54 106.737 40.6423C102.391 36.0332 97.5256 34.4723 93.3177 36.337C87.228 39.0355 85.8123 45.5487 89.5948 53.4651C96.6774 68.2884 96.4659 86.9757 89.0585 100.869C85.0995 108.294 75.9648 117.51 69.1044 120.999C61.1557 125.042 55.1158 126.387 45.4921 126.258C35.2819 126.121 28.3916 123.987 20.4605 118.507C15.9114 115.364 13.9471 114.554 10.8658 114.554C3.88803 114.554 0 118.528 0 125.658C0 131.057 5.8363 136.335 18.2786 142.188C24.962 145.332 28.8534 147.74 30.0891 149.495C30.0891 149.495 31.932 152.113 31.932 152.113C31.932 152.113 32.3694 358.256 32.3694 358.256C32.8418 580.872 32.5092 566.979 37.4596 570.895C39.7236 572.685 41.3707 572.759 84.5877 573.006C134.872 573.294 137.11 573.086 148.724 567.042C157.495 562.478 166.046 553.504 169.946 544.772C169.946 544.772 172.783 538.42 172.783 538.42C172.783 538.42 173.22 456.771 173.22 456.771C173.656 375.332 173.662 375.107 175.592 369.689C176.656 366.702 178.558 362.823 179.818 361.07C186.638 351.587 200.561 347.92 212.337 352.505C230.956 359.754 255.361 392.438 294.348 462.338C325.205 517.66 328.018 522.087 341.211 536.079C356.198 551.973 370.207 561.354 388.289 567.605C408.93 574.74 434.711 577.54 456.487 575.011C456.487 575.011 456.487 575.011 456.487 575.011Z" fill="url(#gradient_3)" transform="translate(51.85 54.475)" />
      <path d="M372.469 194.988C366.905 199.62 320.475 248.397 309.462 261.18C274.344 301.939 262.521 327.5 262.467 362.778C262.438 382.025 265.567 398.812 272.584 417.056C274.743 422.67 276.742 427.889 277.026 428.654C277.311 429.42 273.172 423.042 267.83 414.481C246.249 379.897 227.056 356.936 214.358 350.508C203.952 345.241 191.876 345.896 183.142 352.202C178.047 355.879 174.886 360.26 172.078 367.531C170.154 372.512 170.15 372.654 169.714 454.634C169.714 454.634 169.276 536.747 169.276 536.747C169.276 536.747 166.411 542.959 166.411 542.959C160.676 555.393 148.269 565.175 134.282 568.289C124.908 570.377 41.3193 570.327 37.4992 568.232C32.0071 565.22 32.3625 579.861 32.3625 356.606C32.3625 356.606 32.3625 152.745 32.3625 152.745C32.3625 152.745 30.5412 148.755 30.5412 148.755C28.826 144.998 27.9825 144.383 16.0718 138.218C6.10974 133.062 3.06009 131.039 1.71164 128.694C-1.69601 122.767 0.134247 116.788 5.87082 115.108C9.84091 113.946 12.5559 114.61 17.0526 117.843C22.1845 121.533 26.9837 123.903 31.9192 125.185C37.4137 126.613 51.532 126.662 57.2957 125.274C73.9159 121.272 88.7318 106.104 93.1906 88.5272C95.2743 80.3134 95.0517 66.8481 92.7087 59.3759C91.6686 56.0589 90.0269 51.9757 89.0605 50.3021C86.9586 46.6623 86.653 41.6001 88.4003 39.3656C89.0959 38.4761 90.9851 37.1631 92.5984 36.4479C95.2872 35.2558 95.8706 35.3259 99.5959 37.2875C105.622 40.4608 107.355 43.7577 111.088 59.1561C112.343 64.3301 116.288 68.9914 120.563 70.3497C126.057 72.0955 141.561 71.7569 145.156 69.8126C150.593 66.8722 151.693 64.2398 151.5 54.6366C151.21 40.2125 153.453 36.0767 161.637 35.9455C164.932 35.8927 165.98 36.3197 167.669 38.4021C167.669 38.4021 169.714 40.9227 169.714 40.9227C169.714 40.9227 169.714 128.425 169.714 128.425C169.714 183.736 170.04 217.753 170.602 220.892C174.7 243.81 194.77 250.962 214.789 236.639C221.379 231.924 238.288 213.379 247.402 200.871C259.781 183.881 278.688 153.217 299.045 117.117C327.712 66.2808 336.201 54.0344 353.268 38.8958C381.856 13.5371 415.829 -0.0177917 450.753 4.57764e-05C476.782 0.0132904 491.518 5.66965 497.585 17.9762C499.677 22.2188 499.924 23.7182 499.903 32.0049C499.867 45.8451 496.466 54.6583 484.09 72.985C472.746 89.7828 461.385 102.767 416.838 149.84C381.851 186.812 374.516 193.284 372.469 194.988Z" fill="url(#gradient_4)" transform="translate(53.606 56.148)" />
    </g>
    <path d="M14.6414 16.862C19.3519 12.8152 19.6759 7.54646 15.4874 3.10426C7.16698 -5.72014 -5.21504 6.11028 2.355 15.6516C4.29425 18.0959 5.20618 18.5034 8.69765 18.4857C11.2334 18.4729 13.481 17.8589 14.6414 16.862C14.6414 16.862 14.6414 16.862 14.6414 16.862Z" fill="#FCA13D" transform="translate(238 61)" />
    <path d="M31.4945 17.1649L31.4945 0L15.7473 0L0 0L0 17.1649L0 34.3299L15.7473 34.3299L31.4945 34.3299L31.4945 17.1649Z" fill="#FCA13D" transform="translate(158 62)" />
    <path d="M30.9216 16.701L30.9216 0L15.6118 0L0.301918 0C0.301918 0 0.061203 15.7391 0.061203 15.7391C-0.0711899 24.3956 0.018425 32.0254 0.260429 32.6941C0.604698 33.6457 3.98545 33.8548 15.811 33.656C15.811 33.656 30.9216 33.4021 30.9216 33.4021L30.9216 16.701Z" fill="#FCA13D" transform="translate(100 105)" />
    <path d="M21.9138 12.3217L22.1581 0L11.0791 0.259872L0 0.51976C0 0.51976 0.0594788 12.3496 0.0594788 12.3496C0.0922089 18.8561 0.145325 24.4012 0.177353 24.672C0.209473 24.9429 5.05827 25.0473 10.9526 24.904C10.9526 24.904 21.6695 24.6435 21.6695 24.6435L21.9138 12.3217Z" fill="#FCA13D" transform="translate(168 132)" />
  </g>
</svg>